<?xml version="1.0" encoding="UTF-8" standalone="no"?>
<svg
   width="314"
   height="314"
   viewBox="0 0 314 314"
   fill="none"
   version="1.1"
   id="svg20"
   sodipodi:docname="computer.svg"
   inkscape:version="1.2.1 (9c6d41e410, 2022-07-14)"
   xmlns:inkscape="http://www.inkscape.org/namespaces/inkscape"
   xmlns:sodipodi="http://sodipodi.sourceforge.net/DTD/sodipodi-0.dtd"
   xmlns="http://www.w3.org/2000/svg"
   xmlns:svg="http://www.w3.org/2000/svg">
  <defs
     id="defs24" />
  <sodipodi:namedview
     id="namedview22"
     pagecolor="#505050"
     bordercolor="#eeeeee"
     borderopacity="1"
     inkscape:showpageshadow="0"
     inkscape:pageopacity="0"
     inkscape:pagecheckerboard="0"
     inkscape:deskcolor="#505050"
     showgrid="false"
     inkscape:zoom="3.1910828"
     inkscape:cx="157"
     inkscape:cy="134.43713"
     inkscape:window-width="2560"
     inkscape:window-height="1369"
     inkscape:window-x="1912"
     inkscape:window-y="-8"
     inkscape:window-maximized="1"
     inkscape:current-layer="svg20" />
  <path
     d="m 117.82886,200.39881 -2.17592,21.06542 c -0.17519,1.70041 0.3601,3.39527 1.47656,4.66606 1.11368,1.27079 2.70287,1.99656 4.37131,1.99656 h 62.16736 c 1.66566,0 3.25484,-0.72577 4.37131,-1.99656 1.11368,-1.27079 1.65036,-2.96565 1.47517,-4.66606 l -2.17453,-21.06542 h 77.43496 c 12.05307,0 21.85792,-10.05233 21.85792,-22.4085 V 22.689668 C 286.63161,10.333221 276.82676,0.2810255 264.77508,0.2810255 H 35.688908 c -12.052374,0 -21.857084,10.0521955 -21.857084,22.4086425 V 177.99031 c 0,12.35617 9.80471,22.4085 21.857084,22.4085 z m 59.30321,15.67219 h -49.09794 l 1.61838,-15.67219 h 45.86117 z M 35.688908,12.336875 H 264.77508 c 5.56841,0 10.09822,4.643956 10.09822,10.352793 V 159.41087 H 25.590969 V 22.689668 c 0,-5.708837 4.529669,-10.352793 10.097939,-10.352793 z M 25.590969,177.99031 v -6.52359 H 274.8719 v 6.52359 c 0,5.70884 -4.5298,10.35266 -10.09821,10.35266 H 35.688908 c -5.56827,0 -10.097939,-4.64382 -10.097939,-10.35266 z"
     fill="#f3f6ff"
     id="path14"
     style="stroke-width:1.39036" />
  <path
     d="m 264.61241,268.62539 c 1.06641,-1.79914 1.1387,-4.0404 0.19187,-5.90905 l -11.61372,-22.90487 c -1.01218,-1.99517 -3.02265,-3.24789 -5.21664,-3.24789 H 52.489654 c -2.193439,0 -4.205018,1.25272 -5.217203,3.24789 l -11.612463,22.90487 c -0.947116,1.86865 -0.874956,4.10991 0.191176,5.90905 1.06627,1.80052 2.972042,2.89891 5.025889,2.89891 H 259.58624 c 2.05357,0.001 3.95976,-1.09839 5.02617,-2.89891 z M 50.55955,259.46984 56.059693,248.62082 H 244.40346 l 5.50028,10.84902 z"
     fill="#f3f6ff"
     id="path16"
     style="stroke-width:1.39036" />
  <path
     d="m 274.8733,282.3747 h -9.4086 c -13.61445,0 -24.69287,11.3565 -24.69287,25.31575 0,3.32993 2.63196,6.02862 5.87985,6.02862 h 47.03464 c 3.2465,0 5.87846,-2.69869 5.87846,-6.02862 0.001,-13.95786 -11.07565,-25.31575 -24.69148,-25.31575 z m -20.92638,19.28852 c 2.14394,-4.28927 6.50273,-7.23267 11.51778,-7.23267 h 9.4086 c 5.01504,0 9.37383,2.9434 11.51916,7.23267 z"
     fill="#f3f6ff"
     id="path18"
     style="stroke-width:1.39036" />
</svg>
