<svg width="314" height="314" viewBox="0 0 314 314" fill="none" xmlns="http://www.w3.org/2000/svg">
    <path d="M128.742 188.214L127.177 203.365C127.051 204.588 127.436 205.807 128.239 206.721C129.04 207.635 130.183 208.157 131.383 208.157H176.096C177.294 208.157 178.437 207.635 179.24 206.721C180.041 205.807 180.427 204.588 180.301 203.365L178.737 188.214H234.431C243.1 188.214 250.152 180.984 250.152 172.097V60.3992C250.151 51.512 243.099 44.2821 234.431 44.2821H69.664C60.9955 44.2821 53.9436 51.512 53.9436 60.3992V172.097C53.9436 180.984 60.9955 188.214 69.664 188.214H128.742ZM171.395 199.486H136.082L137.246 188.214H170.231L171.395 199.486ZM69.664 52.9531H234.431C238.436 52.9531 241.694 56.2932 241.694 60.3992V158.734H62.4012V60.3992C62.4012 56.2932 65.6591 52.9531 69.664 52.9531ZM62.4012 172.097V167.405H241.693V172.097C241.693 176.203 238.435 179.543 234.43 179.543H69.664C65.6591 179.543 62.4012 176.203 62.4012 172.097Z" fill="#F3F6FF"/>
    <path d="M234.314 237.285C235.081 235.991 235.133 234.379 234.452 233.035L226.099 216.561C225.371 215.126 223.925 214.225 222.347 214.225H81.7477C80.1701 214.225 78.7233 215.126 77.9953 216.561L69.6432 233.035C68.962 234.379 69.0139 235.991 69.7807 237.285C70.5476 238.58 71.9183 239.37 73.3955 239.37H230.699C232.176 239.371 233.547 238.58 234.314 237.285ZM80.3595 230.7L84.3154 222.897H219.779L223.735 230.7H80.3595Z" fill="#F3F6FF"/>
    <path d="M241.694 247.174H234.927C225.135 247.174 217.167 255.342 217.167 265.382C217.167 267.777 219.06 269.718 221.396 269.718H255.225C257.56 269.718 259.453 267.777 259.453 265.382C259.454 255.343 251.487 247.174 241.694 247.174ZM226.643 261.047C228.185 257.962 231.32 255.845 234.927 255.845H241.694C245.301 255.845 248.436 257.962 249.979 261.047H226.643Z" fill="#F3F6FF"/>
</svg>
