<svg width="23.706mm" height="15.875mm" version="1.1" viewBox="0 0 23.706 15.875" xmlns="http://www.w3.org/2000/svg">
 <g transform="translate(-14.155 -35.715)">
  <path d="m16.943 51.506c-0.31992-0.14897-0.5068-0.47535-0.5068-0.88512v-0.18328l-0.26101-0.05807c-0.32133-0.07149-0.81308-0.3104-1.0822-0.52575-0.40096-0.32089-0.74309-0.87003-0.86882-1.3945-0.06653-0.27752-0.07047-0.41065-0.06955-2.3489 0.0011-2.2109 9e-3 -2.3319 0.18883-2.8711 0.19121-0.57332 0.46391-1.0144 0.89798-1.4524 0.61064-0.61617 1.3448-0.97459 2.2215-1.0845 0.15616-0.01958 0.28538-0.03968 0.28714-0.04467 0.07218-0.20364 0.349-0.66396 0.49887-0.82956 0.50752-0.56083 1.1689-0.85446 1.9279-0.85585 0.44607-7.96e-4 0.75084 0.07103 1.1755 0.27711 0.28245 0.13706 0.38078 0.20964 0.65267 0.48176 0.26057 0.26078 0.34837 0.37745 0.47196 0.62714 0.13539 0.27353 0.16362 0.30849 0.26053 0.32271 0.05978 0.0088 0.22074 0.03246 0.3577 0.05266 0.13695 0.02019 0.35778 0.0703 0.49072 0.11137l0.24171 0.07466 1.0723 1.087c1.0232 1.0373 1.0757 1.097 1.1475 1.3045 0.14772 0.42713 0.15934 0.65914 0.1471 2.9396l-0.01159 2.1601-0.10806 0.2868c-0.33738 0.89538-1.0019 1.4791-1.9203 1.6868l-0.23708 0.05362-3.98e-4 0.23327c-6.64e-4 0.40678-0.2487 0.77462-0.59178 0.87742-0.09874 0.02958-0.96826 0.04067-3.1702 0.04042l-3.0341-3.99e-4 -0.1781-0.08293zm6.3107-0.57163c0.05888-0.05889 0.07666-0.12133 0.07999-0.28099l0.0043-0.20528-6.3046-0.018 0.0011 0.20215c0.0012 0.21727 0.04404 0.30342 0.17769 0.35735 0.05294 0.02136 1.1857 0.03157 3.0252 0.02728l2.9406-0.0069zm0.78675-1.1186c0.36536-0.07671 0.71507-0.26353 0.97771-0.52233 0.2494-0.24575 0.37813-0.44478 0.51124-0.79045 0.08863-0.23018 0.08965-0.24453 0.10181-1.4355l0.01228-1.203h-10.934l0.01421 1.1679c0.01211 0.99566 0.02339 1.1963 0.07651 1.361 0.23337 0.72363 0.8107 1.2718 1.4956 1.4202 0.34732 0.07521 7.3874 0.0772 7.7447 0.0022zm1.5981-4.8293v-0.28099h-10.923v0.56197h10.923zm-10.29-1.08c0.3193-1.5661 1.9337-2.4576 3.449-1.9046 0.65517 0.23911 1.1353 0.67358 1.4157 1.2812 0.10734 0.23254 0.22712 0.63663 0.22712 0.76618 0 0.05083 0.04168 0.05922 0.29433 0.05922h0.29433l-0.051382-0.27212c-0.22013-1.1658-1.1134-2.1424-2.2583-2.4691-0.37553-0.10713-1.0497-0.13234-1.4375-0.05376-1.2058 0.24432-2.1629 1.1542-2.4576 2.3362-0.11789 0.47294-0.12424 0.4587 0.2046 0.4587h0.2785zm1.1459 0.14049c0.12493-0.36882 0.37706-0.70053 0.65727-0.86475 0.71896-0.42134 1.6711-0.13058 2.0255 0.61854 0.05721 0.12093 0.10403 0.23962 0.10404 0.26377 2e-5 0.03164 0.08251 0.0439 0.29529 0.0439 0.28798 0 0.29483-2e-3 0.2777-0.07903-0.16348-0.73571-0.62084-1.2666-1.2958-1.5041-0.29307-0.10314-0.83439-0.12813-1.1523-0.0532-0.68726 0.162-1.2446 0.6854-1.4407 1.353-0.08575 0.29195-0.09258 0.28339 0.22605 0.28339 0.23731 0 0.2854-0.0098 0.30291-0.06147zm2.1165-0.07683c-0.17653-0.31409-0.59457-0.47958-0.95028-0.37617-0.2064 0.06-0.43187 0.23149-0.53269 0.40517l-0.06345 0.1093h1.6241zm4.6256 0.04171c-0.06395-0.12209-0.25315-0.30122-0.39026-0.36949-0.38353-0.19096-0.89185-0.02832-1.1172 0.35744l-0.06345 0.10864h1.6215zm1.1884-0.08622c-0.18626-0.70608-0.77292-1.2873-1.4638-1.4502-0.28847-0.06801-0.71825-0.06683-0.98784 0.0027-0.21319 0.055-0.68998 0.2818-0.68998 0.32821 0 0.01317 0.04401 0.14468 0.09781 0.29223l0.09781 0.26827 0.11108-0.08693c0.34823-0.27253 0.86033-0.36392 1.2966-0.2314 0.44324 0.13463 0.8035 0.47201 0.95275 0.89224l0.05954 0.16762h0.57425zm1.1572-0.07058c-0.23192-1.2172-1.1126-2.1651-2.3144-2.4911-0.40619-0.11018-1.181-0.11064-1.5806-9.3e-4 -0.29597 0.08126-0.67187 0.24627-0.92486 0.40598l-0.1511 0.09538 0.12257 0.13568c0.06742 0.07462 0.14852 0.17527 0.18023 0.22366l0.05765 0.08799 0.15341-0.10353c0.64133-0.43283 1.5594-0.50098 2.3417-0.17384 0.81327 0.34007 1.4576 1.123 1.5601 1.8957l0.02366 0.17835h0.57989l-0.04828-0.25339zm-5.2121-2.5234c0.08693-0.05891 0.23313-0.14604 0.32489-0.19362 0.09176-0.04758 0.16684-0.10072 0.16684-0.11809 0-0.04542-0.25277-0.23911-0.37252-0.28545-0.15236-0.05896-0.46964-0.05062-0.6285 0.01653-0.07727 0.03266-0.1914 0.10865-0.25362 0.16887l-0.11312 0.10948 0.28874 0.17163c0.15881 0.0944 0.30376 0.18658 0.32211 0.20485 0.05269 0.05245 0.09631 0.04024 0.26518-0.0742zm-1.3335-0.64967c0.04244-0.06867 0.16126-0.18834 0.26404-0.26594 0.4816-0.36361 1.0632-0.4031 1.6064-0.10907 0.1606 0.08692 0.39451 0.30788 0.47144 0.44535 0.03434 0.06136 0.04923 0.06184 0.30679 0.01 0.14888-0.02997 0.27959-0.06339 0.29046-0.07426 0.04103-0.04103-0.22659-0.42291-0.42998-0.61356-0.41994-0.39364-0.8555-0.54999-1.4567-0.52288-0.45913 0.0207-0.7598 0.12587-1.1079 0.38752-0.21426 0.16103-0.6131 0.63464-0.6131 0.72804 0 0.02882 0.37747 0.12814 0.5152 0.13557 0.05181 0.0028 0.10084-0.03582 0.15333-0.12075zm7.8473 10.822-0.08621-0.08621v-7.4653l0.56198 0.55868v0.7568h0.28099c0.26715 0 0.28099-0.0038 0.28099-0.07825 0-0.06375 0.05543-0.02311 0.29914 0.21934l0.29914 0.29759-0.0188 5.7493-0.08292 0.06714c-0.07528 0.06095-0.1458 0.06714-0.76553 0.06714-0.67792 0-0.6832-5.31e-4 -0.76882-0.08621zm1.0377-3.0573v-2.5816h-0.56197v2.5582c0 1.407 0.01054 2.5687 0.02342 2.5816s0.13932 0.02341 0.28099 0.02341h0.25757zm1.3076 3.12c-0.02455-0.0099-0.06802-0.06317-0.09659-0.11842-0.04443-0.08591-0.05195-0.46427-0.05195-2.6135 0-1.4172 0.01343-2.5131 0.03081-2.5131 0.01694 0 0.15129 0.13271 0.29855 0.29491l0.26774 0.29491v4.1167h0.56197v-3.5634l0.28099 0.27934 0.28099 0.27934v3.3942l-0.08621 0.08621c-0.08579 0.08579-0.08952 0.0862-0.76393 0.08344-0.37275-0.0015-0.69781-0.01086-0.72236-0.02073zm6.6124-3.9811c-0.70732-0.14064-1.188-0.5078-2.2307-1.704-0.76899-0.88218-1.2012-1.2518-1.8101-1.548-0.81847-0.39816-1.9769-0.49852-2.963-0.25669l-0.30743 0.0754-0.34829-0.35857c-0.19156-0.19721-0.36103-0.38101-0.3766-0.40843-0.03446-0.06069 0.15473-0.14813 0.59939-0.27705 0.5361-0.15542 1.0011-0.20412 1.7471-0.18295 0.73235 0.02078 1.0593 0.07561 1.6157 0.27097 0.96933 0.34035 1.7045 0.90914 2.7459 2.1244 0.52207 0.60925 0.88483 0.95103 1.1752 1.1073 0.18955 0.10198 0.25895 0.12035 0.4576 0.12113 0.19992 7.96e-4 0.24737-0.01147 0.32453-0.08389 0.26988-0.25328 0.42025-1.2888 0.33961-2.3387-0.17927-2.3341-1.1171-5.128-2.0245-6.0313-0.62926-0.6264-2.4906-1.0195-4.8272-1.0195-1.9098 0-3.4866 0.25731-4.4049 0.7188-0.41129 0.20671-0.77156 0.64636-1.1449 1.3972-0.10086 0.20284-0.18963 0.37553-0.19726 0.38377-0.02306 0.0249-0.74717-0.7489-0.74904-0.80044-0.0021-0.05689 0.3044-0.60842 0.49185-0.88515 0.19147-0.28267 0.41288-0.53336 0.6195-0.70145l0.1806-0.14691-0.01896-0.1837c-0.02336-0.22632 0.05367-0.40983 0.21296-0.50737 0.06073-0.03718 0.59672-0.19719 1.1911-0.35558 0.82544-0.21996 1.1097-0.28252 1.2037-0.26489 0.14817 0.0278 0.3596 0.20456 0.39011 0.32614 0.02152 0.08575 0.02791 0.0874 0.25433 0.06588 1.3043-0.124 2.7423-0.12507 3.9026-0.0029l0.19318 0.02034 0.05915-0.14291c0.04561-0.11021 0.09384-0.15866 0.21074-0.21171 0.08338-0.03784 0.18161-0.06914 0.2183-0.06957 0.06616-7.96e-4 1.7737 0.44413 2.1109 0.54999 0.31079 0.09757 0.4606 0.2982 0.42802 0.57327l-0.01932 0.16315 0.20869 0.15198c1.0593 0.7714 2.212 3.707 2.5064 6.3831 0.0631 0.57358 0.07245 1.7027 0.01746 2.1064-0.09124 0.66966-0.30044 1.2221-0.57324 1.5137-0.34938 0.37352-0.87815 0.5344-1.4093 0.4288zm-9.1142-6.4446v-0.50929h-1.0537v-1.0537h1.0537v-1.0537h1.0186v1.0537h1.0537v1.0537h-1.0537v1.0186h-1.0186zm6.4591 0.42956c-0.13761-0.09193-0.24217-0.27739-0.24217-0.42956 0-0.38535 0.46556-0.6427 0.79704-0.44059 0.32675 0.19923 0.32702 0.68178 5.31e-4 0.88088-0.15746 0.09601-0.40268 0.09127-0.55536-0.01073zm-0.97917-1.0004c-0.17546-0.08815-0.28169-0.26364-0.28169-0.46533 0-0.20169 0.10623-0.37718 0.28169-0.46533 0.44751-0.22484 0.90324 0.25506 0.67537 0.71119-0.06699 0.13409-0.30967 0.28103-0.46399 0.28093-0.04903-3.1e-5 -0.14415-0.02769-0.21138-0.06147zm2.0811-0.0056c-0.38558-0.17985-0.39084-0.73312-0.0088-0.92506 0.34237-0.17202 0.73707 0.07535 0.73676 0.46174-2.66e-4 0.39724-0.36796 0.63124-0.72795 0.46332zm-1.0486-1.0365c-0.32075-0.13965-0.38741-0.58949-0.12466-0.84121 0.20325-0.19472 0.51851-0.18264 0.7291 0.02795 0.15258 0.15258 0.184 0.3297 0.09611 0.54176-0.11779 0.28421-0.41067 0.39772-0.70055 0.2715z" fill="#F3F6FF" stroke-width=".035123"/>
 </g>
</svg>
