<?xml version="1.0" encoding="UTF-8"?>
<svg width="937.98" height="940" version="1.1" viewBox="0 0 937.98 940" xmlns="http://www.w3.org/2000/svg">
 <g transform="translate(-555,-554)">
  <path d="m946.19 1491.5c-1.6322-1.3733-3.2401-3.5828-3.5732-4.9098-1.0737-4.2779-9.3918-49.462-13.088-71.093-1.9735-11.55-3.9114-22.053-4.3065-23.341-0.60508-1.9718-3.4756-3.3303-18.218-8.6217-17.211-6.1775-46.298-19.197-56.901-25.469l-5.4012-3.1951-9.0988 6.2776c-5.0043 3.4527-18.324 12.837-29.599 20.854-28.659 20.377-45.622 31.901-48.657 33.055-6.6674 2.5349-6.2686 2.8747-59.994-51.113-27.813-27.949-51.23-51.759-52.038-52.913-2.2566-3.2218-3.2548-7.743-2.3817-10.787 0.76944-2.6829 26.889-40.727 48.483-70.618 5.9091-8.1795 10.954-15.42 11.211-16.09 0.25718-0.6702-1.296-4.778-3.4515-9.1283-9.5096-19.192-22.533-52.846-26.694-68.978-0.15153-0.5874-15.734-3.8574-34.627-7.2666-53.784-9.705-74.163-13.706-76.655-15.05-1.2669-0.6835-3.1778-2.6764-4.2463-4.4288-1.8769-3.0782-1.9429-5.6694-1.9465-76.451l-0.00374-73.265 3.25-3.5c3.7552-4.0441 2.0744-3.691 69.188-14.534 20.866-3.371 38.978-6.5248 40.25-7.0083 1.2718-0.48354 2.3124-1.5499 2.3124-2.3696 0-1.7969 6.4466-20.604 11.332-33.059 4.6381-11.825 7.3953-18.022 15.908-35.751l7.0822-14.751-17.584-26.249c-9.671-14.437-23.056-34.301-29.745-44.143-6.6889-9.8414-12.858-19.354-13.709-21.139-3.332-6.9873-4.2534-5.8658 51.318-62.468 28.349-28.875 52.524-53.047 53.721-53.715 2.781-1.5514 8.1881-1.6175 10.96-0.13407 1.9945 1.0674 36.145 24.659 55.717 38.49 22.471 15.879 28.982 20.359 29.594 20.359 0.36488 0 6.118-2.6479 12.785-5.8843 16.479-7.9995 35.42-15.947 51.621-21.66 7.425-2.618 13.9-5.1138 14.388-5.5463 0.48852-0.43248 2.8112-11.727 5.1616-25.098 7.577-43.107 13.571-75.023 14.775-78.676 0.69987-2.1224 2.5485-4.4872 4.5727-5.8493l3.3979-2.2866 71.602 2e-3c66.192 1e-3 71.861 0.13366 75.031 1.75 1.8859 0.96165 4.2046 2.8734 5.1527 4.2484 1.1699 1.6966 4.3272 17.442 9.8253 49 4.4558 25.575 8.4375 48.935 8.8483 51.911l0.7469 5.4114 11.499 3.8403c17.911 5.9817 36.068 13.517 53.274 22.109 8.6764 4.3327 16.132 7.7314 16.569 7.5526 0.4364-0.17871 6.8376-4.71 14.225-10.07 7.3871-5.3596 26.668-19.024 42.847-30.366 26.384-18.495 29.82-20.615 33.332-20.567 2.1536 0.0297 4.9518 0.73295 6.2182 1.5627 2.0232 1.3256 55.524 55.045 91.901 92.276 11.805 12.082 12.898 13.517 13.337 17.5 0.3938 3.5747-0.01 5.043-2.286 8.3387-11.857 17.159-56.418 83.88-56.418 84.475 0 0.41237 3.5483 7.8991 7.8851 16.637 10.577 21.312 14.836 31.629 21.628 52.388 3.1489 9.625 6.0708 18.422 6.4931 19.549 0.6685 1.7834 2.6939 2.3418 15.631 4.3092 30.307 4.6088 83.97 14.269 87.166 15.691 2.2493 1.0007 3.917 2.8223 5.228 5.7104 1.8409 4.0555 1.926 7.3138 1.947 74.523 0.024 75.916 0.073 75.172-5.2556 78.664-1.3889 0.9101-13.194 3.5109-27.334 6.0225-63.708 11.315-81.966 14.606-82.946 14.949-0.5812 0.2039-1.8211 3.1202-2.7554 6.4807-3.0746 11.059-11.783 33.286-20.689 52.81l-8.7628 19.208 29.218 43.792c16.07 24.086 29.524 45.025 29.899 46.533 0.4062 1.635 0.1117 4.0567-0.7298 6-1.2076 2.7888-100.57 103.21-104.72 105.84-0.7696 0.4873-3.06 0.8929-5.0898 0.9013-3.8679 0.016-7.5169-2.2078-30.309-18.472-9.8089-6.9995-25.494-18.072-48.638-34.335-6.4012-4.4979-12.007-8.178-12.458-8.178s-8.4883 3.7823-17.862 8.4052c-18.912 9.3275-29.961 13.905-48.532 20.106l-12.49 4.1703-1.7759 9.4095c-0.9767 5.1752-5.144 27.859-9.2608 50.409-4.1167 22.55-7.9978 42.259-8.6247 43.797-2.3932 5.8725 0.01 5.7028-80.732 5.7028h-73.973zm139.28-24.253c0.3803-2.6125 2.2653-13.3 4.189-23.75 1.9236-10.45 5.6868-31.318 8.3626-46.372 5.5214-31.065 5.5465-31.122 14.938-33.732 23.05-6.4072 45.088-15.198 68.85-27.464 12.841-6.6282 18.282-8.932 21.094-8.932 3.0926 0 5.7061 1.3458 14.196 7.3103 23.143 16.259 46.146 32.54 59.192 41.895 7.5827 5.4372 14.346 10.101 15.03 10.363 1.3806 0.5298 86.684-83.926 86.684-85.823 0-1.3862-3.4965-6.6752-33.878-51.245-12.372-18.15-22.929-34.596-23.461-36.547-0.8954-3.2877-0.3785-4.7477 7.0813-20 11.274-23.052 18.304-40.174 24.86-60.554 5.9787-18.584 7.2648-20.742 13.362-22.42 1.9446-0.5351 21.311-3.9135 43.036-7.5076s44.45-7.533 50.5-8.753l11-2.2183 0.258-59.442c0.1419-32.693-0.1-59.8-0.5365-60.236-0.437-0.43697-10.903-2.5715-23.258-4.7434-31.041-5.4566-67.58-11.782-72.874-12.614-2.4257-0.3816-5.376-1.6594-6.5561-2.8394-1.2891-1.2891-4.0548-8.1294-6.9283-17.135-8.5936-26.933-14.608-41.607-27.327-66.677-10.096-19.898-12.397-25.201-11.861-27.335 0.3653-1.4557 6.6664-11.496 14.002-22.312 33.604-49.546 43.581-64.606 43.581-65.785 0-2.0444-85.162-87.532-86.635-86.967-1.2886 0.49446-20.785 14.037-41.365 28.732-44.015 31.429-43.124 30.855-47.864 30.855-3.4781 0-6.1396-0.98453-12.087-4.4711-20.122-11.797-56.736-27.095-77.838-32.524-2.359-0.60685-5.629-2.3188-7.2666-3.8043-2.7001-2.4493-3.2006-3.9583-5.3733-16.201-1.3178-7.425-4.9341-27.675-8.0364-45-3.1022-17.325-6.1825-34.65-6.8452-38.5l-1.2047-7-121.44-0.51548-0.45796 2.2577c-0.25187 1.2418-2.3239 12.608-4.6045 25.258-2.2806 12.65-5.665 31.1-7.5208 41s-4.0626 22.034-4.9038 26.965c-1.1427 6.6971-2.1018 9.5126-3.7922 11.131-1.2906 1.2358-7.4181 3.7616-14.263 5.8791-17.018 5.2651-33.759 12.186-58.396 24.142-15.429 7.4877-22.434 10.383-25.119 10.383-3.0164 0-5.5047-1.2944-13.104-6.8171-16.076-11.683-72.962-50.392-74.715-50.841-2.3764-0.60909-88.71 85.959-87.583 87.82 0.44544 0.73572 7.0903 10.563 14.766 21.838 39.045 57.352 44.801 66.155 45.312 69.306 0.44839 2.7631-0.94009 6.2134-8.3521 20.754-4.8895 9.592-11.307 23.29-14.261 30.44-5.65 13.674-15.883 42.696-17.888 50.734-0.77647 3.1119-2.0399 5.2964-3.6878 6.3761-1.539 1.0084-10.703 2.9188-23.74 4.9486-11.678 1.8184-34.861 5.5866-51.518 8.3738-16.657 2.7872-30.719 5.0677-31.25 5.0677-0.60945 0-0.96501 22.446-0.96501 60.92v60.921l2.75 0.5693c1.5125 0.3132 23.9 4.3823 49.75 9.0426 60.582 10.922 57.072 10.131 59.348 13.364 1.0386 1.4755 3.1361 6.9578 4.661 12.183 6.0631 20.774 20.173 55.405 29.496 72.392 4.6788 8.5251 5.1059 13.185 1.7286 18.864-1.8141 3.0503-32.716 47.492-52.483 75.479l-4.4033 6.2344 87.384 87.935 16.135-11.024c8.874-6.063 24.46-16.872 34.635-24.02 32.728-22.992 34.854-24.32 38.866-24.269 2.6434 0.033 9.086 2.9465 23.634 10.687 20.221 10.76 39.317 18.838 58.5 24.749 12.444 3.8343 15.574 5.3076 17.022 8.0133 0.5946 1.1111 2.3598 9.3189 3.9227 18.24 3.4496 19.69 14.066 76.73 14.605 78.47 0.30431 0.9821 13.444 1.25 61.305 1.25h60.918zm-82.464-130.85c-44.393-3.9029-77.128-12.951-114.45-31.635-78.171-39.134-139.75-118.81-156.67-202.72-5.2778-26.176-6.2901-36.42-6.2795-63.548 0.0106-27.109 0.90805-36.924 5.4713-59.837 9.8649-49.533 35.753-99.296 73.042-140.41 40.092-44.199 99.15-78.334 156.88-90.679 23.582-5.0423 33.7-6.0162 62.5-6.0162 27.292 0 35.729 0.72048 59.5 5.0809 29.873 5.4797 70.622 21.899 98.953 39.871 46.051 29.214 85.22 72.142 109.02 119.49 15.442 30.718 23.104 55.668 28.711 93.5 2.4908 16.806 2.5369 64.01 0.078 80.249-7.8493 51.846-26.567 96.478-58.19 138.75-10.21 13.648-40.12 44.287-53.572 54.876-41.78 32.888-91.268 54.022-143.12 61.121-10.863 1.4872-52.168 2.7588-61.879 1.9051zm45.5-22.935c43.981-2.5917 98-22.569 134.97-49.916 50.128-37.075 84.95-84.788 103.31-141.55 4.7154-14.58 8.7199-31.913 10.966-47.466 2.2137-15.329 2.1453-52.543-0.1288-70.034-6.7119-51.625-25.876-96.697-58.039-136.5-15.959-19.75-40.736-42.657-60.553-55.981-36.632-24.631-72.542-38.649-117.08-45.705-17.557-2.7814-60.35-2.5203-79.448 0.48469-75.149 11.824-142.79 54.471-186.68 117.7-23.37 33.668-38.893 72.461-45.496 113.7-2.597 16.221-2.6075 63.309-0.0178 79.797 9.6361 61.349 35.057 111.62 78.123 154.5 31.092 30.955 63.461 51.694 103.07 66.037 36.996 13.397 70.487 17.67 117 14.929zm-43.5-33.156c-65.937-4.9774-131.41-40.689-172.11-93.868-23.506-30.718-38.746-63.62-45.828-98.943-9.082-45.298-5.3232-93.206 10.435-133 12.954-32.712 29.188-57.869 53.487-82.883 30.404-31.299 63.725-51.73 104.51-64.08 26.172-7.9247 42.72-9.9716 74.9-9.2642 26.384 0.57997 34.831 1.6972 55.372 7.3233 39.442 10.803 75.739 31.482 105.12 59.886 14.657 14.172 23.364 24.627 34.98 42.005 21.264 31.81 34.343 67.988 38.094 105.37 1.446 14.411 1.2437 41.434-0.4128 55.144-8.8176 72.979-49.889 136.26-115.5 177.96-39.103 24.852-94.061 38.049-143.05 34.352zm47.158-23.899c45.596-5.8685 88.5-26.718 122.2-59.385 31.873-30.894 52.419-66.322 62.564-107.88 4.3492-17.815 5.524-28.631 5.5011-50.645-0.031-29.738-4.0785-52.025-14.025-77.222-8.424-21.341-14.936-32.952-29.298-52.238-34.183-45.902-82.864-75.797-140.45-86.247-15.72-2.8528-47.852-3.084-65.655-0.47251-54.921 8.056-104.47 36.74-140.25 81.18-23.385 29.053-38.263 61.383-44.992 97.767-1.9825 10.72-2.2565 15.387-2.2149 37.733 0.0508 27.283 0.88397 34.907 5.9415 54.364 19.556 75.238 80.141 136.49 155.36 157.07 12.548 3.4329 25.957 6.1699 33.652 6.869 11.648 1.0582 40.37 0.564 51.658-0.8889z" fill="#f3f6ff"/>
 </g>
</svg>
