<?xml version="1.0" encoding="UTF-8"?>
<svg width="788" height="1255.7" version="1.1" viewBox="0 0 788 1255.7" xmlns="http://www.w3.org/2000/svg">
 <g transform="translate(-629.5 -410.14)">
  <path d="m986.25 1664.5c-2.8871-0.7775-7.0934-2.3544-9.3474-3.5042-2.2539-1.1499-8.6627-6.2217-14.242-11.271-5.5791-5.049-15.048-14.224-21.043-20.389s-11.999-12.755-13.344-14.645c-2.1404-3.0082-3.1508-3.5212-8.1097-4.1174-3.1156-0.3746-7.6897-1.148-10.165-1.7185-2.475-0.5706-8.1268-2.7576-12.56-4.86-5.4531-2.5862-10.375-5.9664-15.22-10.452-3.989-3.6932-9.1376-9.8114-11.624-13.814-2.4552-3.9512-5.6379-10.696-7.0726-14.987-1.4347-4.2918-2.878-10.817-3.2073-14.5-0.56419-6.3102-0.88235-6.9997-5.5115-11.944-2.702-2.886-6.1259-7.836-7.6086-11-2.3914-5.1029-2.6959-6.9384-2.6959-16.253 0-7.8357 0.4712-11.721 1.857-15.314 1.0213-2.6474 3.4268-6.8701 5.3454-9.3836l3.4885-4.5702-2.094-2.6163c-1.1517-1.439-3.4034-5.1093-5.0038-8.1562-1.6004-3.047-3.4531-8.3012-4.117-11.676-0.93697-4.7625-0.9412-7.6635-0.0189-12.96 0.65355-3.7529 2.2953-9.0277 3.6484-11.722 1.3531-2.6939 3.7265-6.5191 5.2742-8.5004l2.8141-3.6024-2.8551-4.4638c-1.5703-2.4551-3.8102-6.9551-4.9774-10-1.4434-3.7653-2.279-8.7385-2.6123-15.547-0.27942-5.7085 2.3e-4 -12.37 0.65065-15.5 0.62738-3.0189 2.2576-7.8982 3.6228-10.843l2.4821-5.3542-2.7523-2.1132c-1.5138-1.1622-4.2424-3.7028-6.0637-5.6457-1.8213-1.9429-4.5963-5.7826-6.1666-8.5326s-3.7841-7.7727-4.9195-11.162c-1.3281-3.9644-2.6189-12.344-3.6198-23.5-0.85555-9.536-2.4743-23.188-3.5972-30.338-1.1229-7.15-3.3222-18.4-4.8874-25-1.5652-6.6-5.3654-19.735-8.4451-29.189s-7.4351-21.604-9.6788-27-6.4459-14.986-9.3382-21.311-8.7488-17.8-13.014-25.5-11.996-20.609-17.178-28.687c-5.1825-8.078-12.619-19.103-16.526-24.5-3.9067-5.3969-12.597-16.788-19.312-25.313-6.7148-8.525-16.043-21.125-20.728-28-4.6858-6.875-11.895-18.125-16.021-25-4.1256-6.875-11.098-19.7-15.495-28.5s-11.156-23.875-15.02-33.5-8.6788-22.644-10.698-28.931c-2.0196-6.2871-5.3915-18.212-7.4933-26.5-2.1017-8.2879-4.9745-21.819-6.384-30.069s-3.1483-20.4-3.8641-27c-0.76288-7.0339-1.3015-24.001-1.3015-41 0-17.061 0.5374-33.94 1.3054-41 0.71798-6.6 1.9722-16.05 2.7872-21s2.3885-13.275 3.4966-18.5c1.1081-5.225 3.0972-13.775 4.4202-19 1.323-5.225 4.2504-15.266 6.5055-22.314s6.9818-19.735 10.504-28.193c3.5221-8.4582 8.5063-19.567 11.076-24.686 2.5697-5.1189 6.9443-13.357 9.7214-18.307s8.785-14.75 13.351-21.777c4.5658-7.0276 11.624-17.165 15.685-22.527 4.061-5.3624 11.451-14.508 16.422-20.323s15.007-16.524 22.302-23.798c7.295-7.2738 18.7-17.592 25.344-22.929 6.644-5.337 16.58-12.913 22.08-16.835s15.175-10.388 21.5-14.367 17.35-10.298 24.5-14.04 17.5-8.7963 23-11.231c5.5-2.4346 16.228-6.7453 23.841-9.5792 7.6124-2.834 20.113-6.9252 27.778-9.0917 7.6656-2.1664 19.437-5.1005 26.159-6.5201s17.954-3.4351 24.96-4.4788c7.0059-1.0437 19.371-2.4329 27.477-3.0872 9.3881-0.75762 24.006-0.97382 40.262-0.5955 14.037 0.32669 30.559 1.2631 36.715 2.081 6.1559 0.81784 15.606 2.2277 21 3.133 5.3942 0.9053 17.683 3.6498 27.308 6.099s22.225 6.0644 28 8.0338 15.675 5.5925 22 8.0512 17.824 7.5059 25.554 11.216c7.7297 3.7102 18.98 9.5691 25 13.02 6.0202 3.4508 16.108 9.6534 22.417 13.784 6.309 4.1302 15.084 10.24 19.5 13.578 4.4159 3.3376 12.079 9.469 17.029 13.625s14.794 13.183 21.876 20.058c7.0821 6.8757 16.818 17.039 21.635 22.586 4.8169 5.5465 11.665 13.871 15.218 18.5 3.5533 4.6285 10.063 13.816 14.467 20.416s10.584 16.466 13.735 21.924c3.1508 5.4583 8.5622 15.583 12.025 22.5 3.4632 6.9167 8.1735 16.991 10.468 22.387 2.2939 5.3959 5.5311 13.496 7.1937 18s5.035 15.164 7.4941 23.689 6.0029 23.15 7.8749 32.5c1.8721 9.35 4.2159 23.075 5.2084 30.5 1.4394 10.768 1.8046 20.381 1.8046 47.5 0 21.736-0.4667 37.787-1.2938 44.5-0.7116 5.775-2.4109 17.025-3.7762 25-1.3654 7.975-4.0408 20.84-5.9454 28.589s-5.3125 19.899-7.5731 27-6.8211 19.661-10.134 27.911-9.046 21.3-12.739 29c-3.6931 7.7-10.212 20.061-14.487 27.469-4.2749 7.408-12.63 20.683-18.566 29.5-5.9363 8.8169-16.044 22.722-22.461 30.901-6.4173 8.1787-15.827 20.779-20.91 28-5.0835 7.2212-12.624 18.53-16.757 25.13s-10.238 16.95-13.568 23c-3.3297 6.05-8.3004 15.5-11.046 21s-7.2363 15.175-9.9791 21.5c-2.7429 6.325-6.8221 16.74-9.0651 23.145-2.2429 6.4045-5.4473 16.345-7.1207 22.089-1.6735 5.7447-4.1447 15.58-5.4917 21.855s-3.3605 17.486-4.4745 24.911c-1.1139 7.425-2.5271 19.575-3.1404 27s-1.7454 16.076-2.5158 19.225c-0.7704 3.1485-2.8181 8.5324-4.5504 11.964-1.7323 3.4316-5.827 9.0276-9.0993 12.435-5.8788 6.1221-5.9322 6.23-4.4746 9.0487 0.8114 1.5689 2.0301 5.6732 2.7083 9.1204 0.6782 3.4473 0.9912 8.9356 0.6956 12.196-0.3388 3.7358-1.6671 8.1888-3.5915 12.04l-3.0539 6.1114 2.899 4.0018c1.5944 2.2011 3.708 6.3319 4.697 9.1797 1.1898 3.4263 1.7716 7.884 1.72 13.178-0.056 5.7131-0.7067 9.6158-2.2771 13.652-1.2094 3.1089-3.7787 7.7214-5.7094 10.25l-3.5104 4.5975 3.5104 4.5975c1.9307 2.5286 4.4384 7.0776 5.5725 10.109 1.1342 3.0313 2.3282 8.0568 2.6533 11.168 0.3942 3.771 0.04 7.8097-1.0637 12.116-0.9102 3.553-2.8151 8.4397-4.2331 10.859s-4.1144 6.0997-5.9921 8.178l-3.4139 3.7788-0.2827 17.847c-0.257 16.226-0.5244 18.573-2.9453 25.847-1.4644 4.4-4.3558 10.925-6.4253 14.5s-7.4175 10.169-11.884 14.653c-6.5149 6.5401-9.782 8.9435-16.513 12.148-4.6151 2.197-10.641 4.4757-13.391 5.0637-2.75 0.5881-7.4938 1.3492-10.542 1.6916-4.8291 0.5423-5.8339 1.0487-7.8135 3.9377-1.2494 1.8234-11.139 12.057-21.978 22.742-17.458 17.211-20.597 19.868-27.521 23.289-7.7017 3.8064-8.035 3.873-22.981 4.5948-8.3411 0.4029-24.391 0.7361-35.666 0.7404-14.545 0.01-22.025-0.4027-25.749-1.4055zm74.573-25.904c2.9281-1.622 11.028-8.4633 18-15.203l12.676-12.254-66.75-0.047c-36.712-0.026-66.719 0.2902-66.682 0.7027 0.0374 0.4125 6.4893 6.5677 14.338 13.678 7.8483 7.1105 15.805 13.766 17.682 14.789 3.1545 1.7201 5.7552 1.8389 34.412 1.5717l31-0.2889zm70.377-52.658c2.9146-0.6091 7.5491-2.222 10.299-3.5841s6.8602-4.0012 9.1342-5.8645c2.274-1.8634 5.6978-5.763 7.6083-8.6659 1.9106-2.9028 4.4772-7.9779 5.7036-11.278 1.4107-3.796 2.4324-9.3523 2.7815-15.126 0.3035-5.0193 0.28-10.209-0.052-11.532l-0.6039-2.4063-14.786 1.2424c-8.1321 0.6833-33.911 2.8448-57.286 4.8033-23.375 1.9586-50.375 4.2288-60 5.045-9.625 0.8163-44.725 3.7316-78 6.4785-33.275 2.747-62.882 5.2545-65.793 5.5722-4.8497 0.5294-5.2406 0.7597-4.669 2.7505 0.34308 1.195 2.0997 5.3227 3.9035 9.1727 1.8038 3.85 4.9194 8.6673 6.9235 10.705 2.0041 2.0378 5.7383 5.1461 8.2982 6.9074s7.1704 4.0074 10.246 4.9912c5.2166 1.669 12.47 1.7924 108.29 1.8426 71.456 0.037 104.31-0.2831 108-1.0538zm-215.77-61.362c14.889-1.3585 38.546-3.3765 52.571-4.4845 14.025-1.1079 44.786-3.5951 68.358-5.5269s58.672-4.8609 78-6.509 38.742-3.2611 43.142-3.5845c4.4-0.3233 9.4739-1.0399 11.275-1.5924 1.8015-0.5524 4.5816-2.1036 6.1782-3.447 1.5965-1.3434 3.6696-4.4505 4.6069-6.9048 1.0867-2.8455 1.4904-5.7796 1.1142-8.0979-0.3245-1.9995-1.6215-5.1603-2.8823-7.024s-4.2166-4.3277-6.5684-5.4755c-4.2446-2.0716-4.4137-2.0752-23-0.4802-10.298 0.8837-38.299 3.1823-62.224 5.108-23.925 1.9256-64.65 5.3042-90.5 7.5079s-62.583 5.3111-81.629 6.9054c-24.806 2.0765-35.489 3.3437-37.662 4.4671-1.6681 0.8627-3.947 2.7305-5.0643 4.1509s-2.5592 4.1818-3.2043 6.1366c-0.64513 1.9547-0.94139 5.2805-0.65837 7.3907 0.28303 2.1101 1.5226 5.2522 2.7546 6.9823 1.232 1.7302 3.6402 3.9996 5.3514 5.0431 1.9407 1.1834 4.966 1.8987 8.0402 1.9011 2.7108 0 17.111-1.1078 32-2.4664zm35.963-60.559c31.96-2.7437 83.083-7.013 113.61-9.4873 30.525-2.4744 66.236-5.3938 79.357-6.4876 19.799-1.6505 24.48-2.3388 27.517-4.0459 2.013-1.1313 4.7697-3.6766 6.1261-5.6561 1.924-2.8078 2.4662-4.8735 2.4662-9.3957 0-4.2796-0.5352-6.5134-2.0452-8.5358-1.1248-1.5066-3.2921-3.667-4.8162-4.801-2.4229-1.8027-4.1118-2.0464-13.438-1.939-5.8668 0.068-25.067 1.293-42.667 2.7231s-48.425 3.9563-68.5 5.6138c-20.075 1.6574-46.625 3.926-59 5.0414-12.375 1.1153-33.525 2.8997-47 3.9654s-33.5 2.6825-44.5 3.5928c-11.977 0.9912-21.082 2.2134-22.698 3.0469-1.4841 0.7654-3.9144 2.9861-5.4008 4.9349-1.7936 2.3515-2.8606 5.1887-3.1726 8.4355-0.35586 3.7036 0.0664 6.0005 1.7377 9.453 1.453 3.0014 3.6311 5.4373 6.3709 7.125 3.7491 2.3094 4.8486 2.5068 11.055 1.9848 3.7905-0.3189 33.04-2.8246 65-5.5682zm-43.892-53.952c13.2-1.1176 48.075-4.0558 77.5-6.5294 29.425-2.4737 66.1-5.5913 81.5-6.9281s44.65-3.6238 65-5.0823c20.35-1.4584 38.613-3.0588 40.585-3.5563 2.3609-0.5957 3.983-1.7776 4.75-3.4608 0.6406-1.406 1.1647-4.0808 1.1647-5.9442 0-1.8633-0.4389-4.5421-0.9752-5.9529l-0.9753-2.5651h-149.59c-101.04 0-150.22 0.3354-151.52 1.0334-1.062 0.5684-2.9417 2.9309-4.1771 5.25-1.8472 3.4677-2.2474 5.8151-2.2533 13.217-6e-3 8.1092 0.2857 9.5287 2.9517 14.342 1.6274 2.9379 4.0441 6.1954 5.3706 7.2388 1.3528 1.0641 3.3468 1.6937 4.5412 1.4338 1.1712-0.2548 12.929-1.3776 26.129-2.4952zm63.141-89.663c-0.37262-14.104-1.3549-34.016-2.1828-44.25s-2.1808-24.456-3.0064-31.606c-0.82555-7.15-2.4282-18.85-3.5614-26s-3.3859-19.3-5.0059-27-4.7671-20.975-6.9936-29.5c-2.2265-8.525-7.6729-26.525-12.103-40-4.4302-13.475-11.553-34.175-15.829-46s-12.347-33.425-17.935-48c-5.5887-14.575-15.804-41.575-22.7-60s-13.252-35.639-14.124-38.254c-1.5154-4.5459-1.4953-4.8743 0.45953-7.5 1.1244-1.5102 3.1774-3.1497 4.5621-3.6432 1.8356-0.65418 5.0593-0.18486 11.898 1.7322 5.159 1.4462 12.755 3.1442 16.88 3.7732 4.2118 0.64231 11.665 0.89177 17 0.56899 5.225-0.31612 12.425-1.4958 16-2.6214 3.575-1.1256 7.105-2.439 7.8446-2.9186 1.0505-0.68129 0.54608-1.9181-2.3065-5.6552-2.0081-2.6308-4.5351-6.5161-5.6156-8.634-1.0805-2.1179-2.683-6.6553-3.5612-10.083-1.0126-3.9527-1.4054-8.3415-1.0737-11.999 0.33392-3.6825 1.4807-7.401 3.173-10.289 1.4575-2.4871 4.3952-5.6769 6.5282-7.0884 2.6091-1.7266 5.7814-2.7373 9.6947-3.0888 3.1992-0.28732 7.7546 2e-3 10.123 0.64259 2.3687 0.64076 6.1138 2.7976 8.3224 4.793s4.9608 5.4587 6.116 7.6962c1.4542 2.8167 2.2392 6.5993 2.5518 12.296 0.2576 4.6936-0.0626 10.27-0.74542 12.982-0.65835 2.6146-2.6132 7.5992-4.344 11.077-2.6652 5.3551-2.922 6.4674-1.6772 7.2636 0.80839 0.51714 3.9448 1.8988 6.9698 3.0705s8.6621 2.3514 12.527 2.6218c3.8648 0.27037 9.4898-0.0202 12.5-0.64583 3.0101-0.62558 7.871-2.249 10.802-3.6077l5.3288-2.4703-3.1032-5.4239c-1.7068-2.9831-3.9708-7.9456-5.0312-11.028s-2.2252-8.2308-2.5885-11.441c-0.4705-4.159-0.1822-7.4828 1.0027-11.559 1.1161-3.8391 3.0081-7.1801 5.7517-10.157 3.0638-3.3239 5.4638-4.8353 9.5759-6.0307 3.4312-0.9975 6.9732-1.3576 9.4529-0.96109 2.1811 0.34877 5.6544 1.4957 7.7185 2.5487 2.0641 1.053 5.1609 3.5181 6.8816 5.478 1.7208 1.9598 3.8735 6.1254 4.7838 9.2567 1.1525 3.9645 1.4883 7.6833 1.1057 12.247-0.3022 3.6044-1.4835 9.0499-2.625 12.101-1.1416 3.0512-3.4153 7.66-5.0527 10.242l-2.977 4.6943 3.7537 1.915c2.0645 1.0532 6.399 2.684 9.6322 3.6239 4.2446 1.2339 8.1276 1.5785 13.97 1.2395 5.6906-0.33015 10.094-1.2866 14.841-3.2234 3.7125-1.5147 6.75-2.9751 6.75-3.2454 0-0.27028-1.8376-4.1998-4.0835-8.7322-3.4307-6.9235-4.1715-9.5247-4.634-16.272-0.4249-6.1988-0.1295-9.373 1.2944-13.911 1.3433-4.2815 3.1113-7.1488 6.5032-10.547 2.8228-2.8279 6.1876-5.0915 8.5392-5.7444 2.1344-0.59263 5.9298-1.08 8.4344-1.0831 2.892-4e-3 6.4307 0.9298 9.6977 2.5578 3.5146 1.7514 6.0965 4.0012 8.1504 7.102 1.6534 2.4962 3.3091 6.5583 3.6793 9.0268s0.388 6.9133 0.04 9.8773c-0.3484 2.964-1.5653 7.8798-2.7042 10.924-1.139 3.0441-3.6308 7.8528-5.5373 10.686-1.9066 2.8331-3.2453 5.7273-2.9751 6.4316 0.2703 0.70429 2.8774 2.0197 5.7936 2.9232 2.9162 0.9035 8.2816 1.8842 11.923 2.1794s9.7165 6e-3 13.5-0.6415c3.7835-0.64798 9.9623-2.0869 13.731-3.1977s13.621-4.9119 21.894-8.447c8.2736-3.5351 16.363-6.4274 17.976-6.4274 1.908 0 3.9539 1.0213 5.8557 2.9231 1.9552 1.9552 2.9231 3.9348 2.9231 5.9785 0 1.6805-5.1317 16.903-11.404 33.827s-16.439 43.821-22.593 59.771-15.01 39.125-19.68 51.5-12.511 34.135-17.424 48.356c-4.9128 14.221-11.382 34.246-14.376 44.5-2.9942 10.254-6.7741 24.103-8.3997 30.775s-4.3267 19.497-6.0023 28.5c-1.6757 9.0027-3.9398 22.668-5.0313 30.368s-2.4587 19.175-3.0381 25.5c-0.5795 6.325-1.4989 19.15-2.043 28.5s-0.9937 24.558-0.999 33.796l-0.01 16.796 74.5-0.591 5.3556-2.9664c2.9455-1.6315 6.6741-4.5565 8.2857-6.5s3.7804-6.4586 4.8196-10.034c1.0391-3.575 2.1653-11.384 2.5025-17.354s1.2715-15.87 2.0762-22 2.379-16.321 3.4985-22.646c1.1194-6.325 3.3745-16.675 5.0113-23s4.59-16.45 6.5628-22.5 6.0706-17.3 9.1061-25c3.0356-7.7 8.7595-20.75 12.72-29s10.954-21.525 15.541-29.5c4.5875-7.975 11.926-19.9 16.307-26.5 4.3813-6.6 10.708-15.825 14.059-20.5 3.351-4.675 12.886-17.5 21.188-28.5 8.3026-11 18.464-25.175 22.58-31.5s9.9727-15.775 13.014-21 7.3593-12.881 9.5967-17.013c2.2373-4.1323 7.261-14.399 11.164-22.815 3.9028-8.4158 9.373-21.415 12.156-28.887s6.8037-19.547 8.9343-26.833c2.1307-7.2863 5.4489-20.831 7.3739-30.1s4.3208-22.927 5.324-30.352c1.4647-10.842 1.8239-20.195 1.8239-47.5 0-27.625-0.3447-36.438-1.8386-47-1.0113-7.15-3.1708-19.525-4.7991-27.5-1.6282-7.975-4.3057-19.392-5.9498-25.372-1.6442-5.9796-5.0476-16.555-7.5631-23.5-2.5156-6.9453-6.1534-16.453-8.084-21.128s-6.2127-13.9-9.5158-20.5c-3.303-6.6-9.3959-17.625-13.54-24.5s-11.144-17.588-15.556-23.806-11.611-15.668-15.998-21c-4.3869-5.3317-15.217-16.914-24.066-25.739-8.8494-8.8249-21.184-20.19-27.411-25.255-6.2268-5.0656-15.838-12.412-21.358-16.326-5.5198-3.9137-15.578-10.416-22.351-14.449-6.7731-4.0335-18.987-10.665-27.142-14.737-8.1552-4.0717-20.453-9.6745-27.328-12.451s-18.35-6.8693-25.5-9.0958c-7.15-2.2265-17.5-5.166-23-6.5323-5.5-1.3663-14.95-3.4135-21-4.5493-6.05-1.1359-16.85-2.7706-24-3.6327s-23.125-1.812-35.5-2.1109c-16.921-0.4087-26.839-0.12842-40 1.1304-9.625 0.92064-24.24 2.8111-32.477 4.201s-20.162 3.8698-26.5 5.5109c-6.3375 1.6411-18.068 5.1659-26.068 7.8329-7.9997 2.667-18.575 6.5039-23.5 8.5265-4.9253 2.0226-15.255 6.7428-22.955 10.489s-19.4 10.038-26 13.981-17.175 10.812-23.5 15.265c-6.325 4.4528-16.225 11.94-22 16.639-5.775 4.6985-16.952 14.857-24.837 22.575-7.8855 7.718-18.51 18.983-23.609 25.033s-12.898 16.051-17.329 22.224c-4.4311 6.173-11.197 16.298-15.035 22.5-3.8384 6.202-9.9336 16.905-13.545 23.785s-8.6559 17.455-11.21 23.5-6.8714 17.274-9.5933 24.953c-2.722 7.6789-6.2644 18.704-7.872 24.5-1.6077 5.7961-4.0878 16.163-5.5115 23.038s-3.4966 18.575-4.6066 26c-1.4262 9.5404-2.1757 20.979-2.5554 39-0.32972 15.65-0.0881 30.908 0.62558 39.5 0.63956 7.7 1.836 18.5 2.6588 24 0.8228 5.5 3.0837 17.384 5.0242 26.409 1.9405 9.0252 5.1087 21.625 7.0405 28 1.9318 6.3748 6.2399 18.945 9.5736 27.934s10.007 24.354 14.831 34.145c4.823 9.7907 11.576 22.686 15.005 28.657 3.43 5.9705 10.505 17.38 15.721 25.355 5.2167 7.975 14.969 21.475 21.672 30 6.7028 8.525 14.895 19.1 18.204 23.5s10.072 14.075 15.029 21.5c4.9564 7.425 12.769 20.025 17.36 28s12.263 22.6 17.047 32.5 11.388 25.2 14.675 34 7.1331 19.825 8.5462 24.5c1.4131 4.675 3.9095 13.9 5.5475 20.5s3.6852 15.6 4.5491 20 2.2502 12.602 3.0805 18.227c0.83029 5.6248 2.1742 17.165 2.9866 25.644 0.95303 9.9482 2.2109 17.379 3.546 20.947 1.1706 3.1289 3.8225 7.3369 6.1075 9.6913 2.2211 2.2888 5.914 5.013 8.2065 6.0538 3.903 1.7721 7.2469 1.8939 52.578 1.9144l48.409 0.022zm-252.14-548.21c-1.1-0.35768-2.7022-1.1003-3.5604-1.6503-0.85819-0.55-2.3207-2.1126-3.25-3.4725-0.9293-1.3599-1.6896-4.3355-1.6896-6.6125 0-2.277 1.1304-9.7144 2.5119-16.527 1.3816-6.8131 3.6459-16.438 5.032-21.388s4.8068-15.3 7.6018-23c2.795-7.7 8.3278-20.75 12.295-29s11.179-21.465 16.026-29.367c4.8471-7.9017 12.192-18.927 16.322-24.5 4.1302-5.5733 11.222-14.414 15.758-19.647 4.5369-5.2323 13.582-14.685 20.101-21.006 6.5184-6.3209 16.802-15.446 22.852-20.277 6.05-4.8316 15.5-11.84 21-15.573 5.5-3.7337 13.956-9.1568 18.791-12.051 4.835-2.8944 14.735-8.0896 22-11.545 7.265-3.4553 18.609-8.3162 25.209-10.802 6.6-2.4857 16.95-5.9078 23-7.6048 6.05-1.6969 15.276-3.9617 20.503-5.0328s14.58-2.6556 20.784-3.521c6.2048-0.86542 13.561-1.5735 16.347-1.5735 4.4275 0 5.4939 0.42826 8.4656 3.4 2.8644 2.8644 3.4 4.1125 3.4 7.9233 0 3.3815-0.6393 5.2831-2.5327 7.5332-1.393 1.6555-3.9805 3.4496-5.75 3.987-1.7695 0.53736-6.5923 1.2526-10.717 1.5894s-14.126 1.9663-22.226 3.6211c-8.099 1.6548-19.349 4.382-25 6.0605-5.651 1.6785-15.899 5.2967-22.774 8.0406-6.875 2.7439-17 7.1761-22.5 9.8493s-14.95 7.8507-21 11.505-15.725 10.062-21.5 14.239c-5.775 4.1766-14.775 11.27-20 15.764-5.225 4.4937-14.733 13.634-21.129 20.311s-14.996 16.536-19.11 21.909c-4.1148 5.3725-10.166 13.818-13.448 18.768-3.2816 4.95-8.6618 13.725-11.956 19.5s-8.3927 15.675-11.33 22c-2.9371 6.325-7.3192 17.104-9.7381 23.952-2.4188 6.8488-5.9285 18.324-7.7992 25.5-1.8707 7.1762-4.1274 17.323-5.0148 22.548-1.1524 6.7856-2.2365 10.18-3.7941 11.879-1.1994 1.3084-3.6287 2.9959-5.3986 3.75-1.7698 0.75412-3.5698 1.3263-4 1.2714-0.43017-0.0548-1.6821-0.39232-2.7821-0.75zm366.79 543.1c0.3147-16.912 1.2958-38.4 2.1802-47.75 0.8843-9.35 2.5137-23.3 3.6208-31 1.107-7.7 3.3703-20.975 5.0294-29.5 1.6592-8.525 4.5849-21.759 6.5015-29.41 1.9167-7.6504 5.902-22.275 8.8562-32.5s9.1975-29.615 13.874-43.09c4.6764-13.475 11.871-33.275 15.988-44 4.1169-10.725 12.294-31.875 18.172-47s15.367-39.943 21.088-55.151 10.401-28.352 10.401-29.208c0-1.2602-1.2861-0.97292-6.75 1.5077-3.7125 1.6855-9.225 3.9321-12.25 4.9924-3.025 1.0603-8.425 2.6275-12 3.4826s-11.225 1.7839-17 2.0641c-7.4724 0.36246-12.663 0.0525-18-1.075-4.125-0.87139-10.795-3.2061-14.822-5.1883-6.6602-3.2784-7.4758-3.4645-9.0272-2.0606-0.9379 0.84885-4.1681 2.6682-7.1782 4.043s-8.1549 3.1958-11.433 4.0467c-3.3659 0.87374-10.13 1.5471-15.54 1.5471-5.2689 0-12.262-0.67394-15.54-1.4976s-9.4696-3.2616-13.759-5.4176l-7.7989-3.9199-7.7736 3.8908c-4.2754 2.1399-10.891 4.6246-14.701 5.5216-5.1829 1.2201-9.8239 1.5029-18.428 1.1229-7.9831-0.35258-13.272-1.137-17.293-2.5648-3.186-1.1313-8.0146-3.2662-10.73-4.7443l-4.9376-2.6874-7.7875 3.5598c-4.2831 1.9579-11.248 4.2746-15.478 5.1482-4.5895 0.94799-12.445 1.5724-19.482 1.5487-6.4857-0.0218-15.055-0.61224-19.042-1.312-5.5043-0.96595-7.25-0.98902-7.25-0.0958 0 0.6471 3.1957 9.675 7.1016 20.062 3.9059 10.387 10.166 26.985 13.911 36.885 3.745 9.9 10.488 27.675 14.984 39.5 4.4961 11.825 12.655 34.068 18.131 49.43 5.4759 15.362 12.613 36.736 15.861 47.5 3.2476 10.764 7.4886 25.723 9.4245 33.243s5.0913 21.48 7.0121 31.022 4.6122 25.664 5.981 35.827c1.3688 10.163 2.9592 23.203 3.5343 28.978s1.4988 18.245 2.0528 27.711c0.55401 9.4662 1.0073 26.229 1.0073 37.25v20.039h98.717zm25.39-416.25c1.5451-3.1732 2.8554-7.8268 3.0971-11 0.3452-4.5316 0.037-5.9842-1.7513-8.25-1.5027-1.9041-3.0909-2.75-5.1634-2.75-1.6463 0-3.9017 0.48622-5.0121 1.0805s-2.6558 2.6048-3.4343 4.4679c-0.7784 1.8631-1.4153 5.197-1.4153 7.4088 0 2.2118 0.8685 6.3072 1.9301 9.1009 1.0615 2.7937 2.6935 6.2446 3.6265 7.6687l1.6965 2.5892 1.8741-2.408c1.0307-1.3244 3.0792-4.883 4.5521-7.908zm-152.78 4.6985c1.1453-2.3658 2.4822-6.4418 2.9709-9.0577 0.4887-2.6159 0.56217-6.2033 0.16326-7.972-0.3989-1.7687-1.256-4.2074-1.9046-5.4194-0.64862-1.212-2.0394-2.6639-3.0906-3.2265-1.0512-0.56261-3.2583-1.0229-4.9045-1.0229-2.0714 0-3.663 0.84692-5.1681 2.75-1.7746 2.2439-2.0744 3.6099-1.6289 7.422 0.30029 2.5696 1.754 7.0696 3.2306 10 1.4765 2.9304 3.5575 6.5654 4.6244 8.078 1.0669 1.5125 2.3191 2.75 2.7826 2.75 0.46348 0 1.7798-1.9357 2.925-4.3015zm78.195-6.6985c1.5056-3.9723 1.9629-7.0053 1.6463-10.919-0.3514-4.344-0.976-5.8819-3.1478-7.75-1.4902-1.2818-3.8298-2.3306-5.1991-2.3306s-3.5644 1.0747-4.878 2.3883c-1.3135 1.3136-2.686 3.9756-3.05 5.9157-0.4137 2.2052-0.034 5.7143 1.0124 9.3617 0.9208 3.2089 2.8307 7.8288 4.2444 10.266l2.5702 4.4322 2.3585-2.9322c1.2972-1.6127 3.2966-5.4071 4.4431-8.4321z" fill="#f3f6ff"/>
 </g>
</svg>
