<svg width="54.025mm" height="31.854mm" version="1.1" viewBox="0 0 54.025 31.854" xml:space="preserve" xmlns="http://www.w3.org/2000/svg"><g transform="translate(-85.885 -159.24)"><path d="m100.02 187.66c-1.5745-2.0808-5.1603-7.1049-7.9686-11.165l-5.1059-7.3813v13.837h-1.0583v-15.346l1.4552 0.02 7.8968 11.783c8.2728 12.344 9.5675 14.579 4.7809 8.2525zm-1.4329-12.382v-7.6729h10.319v1.0583h-9.2604v5.5562h8.7312v1.3229h-8.7312v6.35h9.2604v1.0583h-10.319zm10.583 7.5275c0-0.13891 3.7992-5.4204 5.3681-7.4626l0.25509-0.33203-1.2902-1.823c-0.70963-1.0026-1.8558-2.6151-2.547-3.5833-1.4712-2.0606-1.4709-2.0597-0.53925-1.951l0.71753 0.0837 4.4453 6.2283 2.702-3.655c3.3557-4.5392 8.6632-11.213 8.805-11.071 0.0857 0.0857-6.1914 9.3096-9.8435 14.465l-0.85331 1.2045 2.7401 3.7983c1.5071 2.089 2.7401 3.8985 2.7401 4.021v0.22276h-1.2234l-4.9555-6.899-0.37079 0.3708c-0.20394 0.20394-1.3525 1.7264-2.5523 3.3834l-2.1815 3.0126-1.4164 0.1674zm18.256-6.9983v-7.1438h-5.2917v-1.0583h11.906v1.0583h-5.5562v14.288h-1.0583zm6.0027 5.9145c-0.10005-0.10004-0.1819-0.34938-0.1819-0.55408v-0.37217l0.92604 0.1784v0.37121c0 0.41774-0.4668 0.65405-0.74414 0.37671zm1.4585-0.14662c-0.37775-0.37775-0.42053-1.0054-0.0685-1.0054 0.13693 0 0.32255 0.11907 0.41249 0.26459 0.0899 0.14552 0.27556 0.26458 0.41249 0.26458h0.24897v-2.9104h0.79375v3.0692l-0.3175 0.3175c-0.17463 0.17462-0.508 0.3175-0.74083 0.3175-0.23284 0-0.56621-0.14288-0.74084-0.3175zm2.7914 0.0317-0.46302-0.26968v-0.76746h0.79375v0.52917h1.1024l-0.10782-0.32343c-0.0593-0.17789-0.38537-0.38896-0.72461-0.46904l-0.6168-0.14561-0.57654-0.914 0.28992-0.46302 0.28991-0.46303 1.4338-0.1706 0.38087 0.31609c0.20948 0.17386 0.38088 0.42598 0.38088 0.56028v0.24417l-0.92604-0.17372-0.92604-0.17373v0.23932c0 0.13162 0.38695 0.35323 0.85989 0.49246l0.8599 0.25315 0.0913 0.64664 0.0913 0.64663-0.47257 0.34556c-0.56069 0.40998-1.1262 0.42919-1.7605 0.0598z" fill="#fff" stroke-width=".26458"/></g></svg>
