<svg width="233" height="240" viewBox="0 0 233 240" fill="none" xmlns="http://www.w3.org/2000/svg">
    <g clip-path="url(#clip0_30_22)">
        <path d="M232.687 206.577L225.477 157.65C225.179 155.628 223.346 154.238 221.384 154.545C219.422 154.852 218.072 156.74 218.37 158.762L225.58 207.689C226.472 213.739 224.762 219.872 220.888 224.513C217.015 229.154 211.387 231.816 205.447 231.816H27.6771C21.737 231.816 16.1083 229.154 12.2359 224.513C8.36202 219.871 6.65183 213.739 7.54331 207.687L20.8987 116.836C22.4224 106.497 30.8919 98.9926 41.0371 98.9926H192.087C202.233 98.9926 210.7 106.496 212.22 116.833V116.834L214.746 134.016C215.016 135.85 216.548 137.165 218.295 137.165C218.474 137.165 218.655 137.151 218.838 137.122C220.8 136.816 222.15 134.929 221.853 132.906L219.327 115.724C219.327 115.723 219.327 115.722 219.327 115.722C217.27 101.736 205.814 91.5864 192.087 91.5864H191.325V8.13879H199.232C201.217 8.13879 202.826 6.48113 202.826 4.43542C202.826 2.38971 201.217 0.732056 199.232 0.732056H126.392C124.407 0.732056 122.798 2.38971 122.798 4.43542C122.798 6.48113 124.407 8.13879 126.392 8.13879H134.299V91.5854H99.3171V8.13879H107.224C109.209 8.13879 110.818 6.48113 110.818 4.43542C110.818 2.38971 109.209 0.732056 107.224 0.732056H34.3855C32.4006 0.732056 30.7914 2.38971 30.7914 4.43542C30.7914 6.48113 32.4006 8.13879 34.3855 8.13879H42.2924V91.5854H41.0371C27.3114 91.5854 15.8532 101.737 13.7919 115.724L0.43694 206.577C-0.769742 214.764 1.54447 223.061 6.78555 229.342C12.0257 235.621 19.6402 239.223 27.6771 239.223H205.447C213.484 239.223 221.099 235.621 226.338 229.342C231.58 223.061 233.893 214.764 232.687 206.577ZM141.488 8.13926H184.137V56.0346H141.488V8.13926ZM141.488 81.2167H152.073C154.058 81.2167 155.667 79.5591 155.667 77.5134C155.667 75.4677 154.058 73.81 152.073 73.81H141.488V63.4409H184.137V91.5854H141.488V81.2167ZM49.4806 8.13926H92.1298V56.5286H49.4806V8.13926ZM49.4806 81.2167H60.0661C62.051 81.2167 63.6602 79.5591 63.6602 77.5134C63.6602 75.4677 62.051 73.81 60.0661 73.81H49.4806V63.9348H92.1298V91.5859H49.4806V81.2167Z" fill="#F3F6FF"/>
        <path d="M215.633 209.24L202.272 118.388C201.505 113.158 197.221 109.362 192.086 109.362H41.037C35.9024 109.362 31.6187 113.158 30.8514 118.388C30.8514 118.389 30.8514 118.391 30.8514 118.391C30.8509 118.394 30.85 118.397 30.85 118.397L28.4376 135.234C26.8315 146.446 25.2255 157.662 23.6008 168.934C23.3088 170.957 24.6642 172.84 26.6273 173.141C26.8065 173.168 26.9844 173.181 27.1595 173.181C28.9111 173.181 30.4448 171.86 30.7099 170.022C32.3355 158.748 33.9416 147.53 35.548 136.314L37.9582 119.493C38.202 117.837 39.4096 116.768 41.0365 116.768H42.2919V171.329C42.2919 181.539 50.353 189.845 60.2621 189.845H81.3469C91.256 189.845 99.3171 181.539 99.3171 171.329V116.769H134.299V171.33C134.299 181.54 142.36 189.846 152.269 189.846H173.354C183.263 189.846 191.324 181.54 191.324 171.33V116.769H192.086C193.713 116.769 194.922 117.839 195.165 119.497L208.524 210.348C208.66 211.275 208.397 212.215 207.807 212.923C207.213 213.633 206.353 214.041 205.446 214.041H27.6771C26.7701 214.041 25.9096 213.634 25.316 212.923C24.7243 212.214 24.4627 211.276 24.5987 210.348C24.5997 210.342 24.5997 210.337 24.6001 210.332C24.6006 210.326 24.6019 210.322 24.6028 210.317C25.4579 204.142 26.4263 197.144 27.5083 190.558C27.8395 188.541 26.5213 186.63 24.5642 186.289C22.6075 185.944 20.7522 187.306 20.4211 189.322C19.3235 196.003 18.3479 203.053 17.4874 209.272C17.4865 209.278 17.4865 209.284 17.486 209.29C17.053 212.339 17.9195 215.422 19.8693 217.754C21.8292 220.101 24.6752 221.447 27.6775 221.447H205.447C208.449 221.447 211.295 220.101 213.259 217.751C215.215 215.401 216.081 212.3 215.633 209.24ZM92.1297 171.33C92.1297 177.455 87.293 182.439 81.3478 182.439H60.263C54.3173 182.439 49.4811 177.455 49.4811 171.33V152.32H60.0665C62.0514 152.32 63.6606 150.662 63.6606 148.616C63.6606 146.571 62.0514 144.913 60.0665 144.913H49.4811V134.544H60.0665C62.0514 134.544 63.6606 132.886 63.6606 130.841C63.6606 128.795 62.0514 127.137 60.0665 127.137H49.4811V116.768H92.1302V171.33H92.1297ZM184.136 171.33C184.136 177.455 179.3 182.439 173.355 182.439H152.27C146.324 182.439 141.488 177.455 141.488 171.33V152.32H152.073C154.058 152.32 155.667 150.662 155.667 148.616C155.667 146.571 154.058 144.913 152.073 144.913H141.488V134.544H152.073C154.058 134.544 155.667 132.886 155.667 130.841C155.667 128.795 154.058 127.137 152.073 127.137H141.488V116.768H184.137V171.33H184.136Z" fill="#F3F6FF"/>
        <path d="M176.23 133.062C174.245 133.062 172.635 134.72 172.635 136.766V152.566C172.635 154.612 174.245 156.27 176.23 156.27C178.214 156.27 179.824 154.612 179.824 152.566V136.766C179.824 134.72 178.214 133.062 176.23 133.062Z" fill="#F3F6FF"/>
        <path d="M176.23 158.739C174.245 158.739 172.635 160.396 172.635 162.442V168.367C172.635 170.413 174.245 172.071 176.23 172.071C178.214 172.071 179.824 170.413 179.824 168.367V162.442C179.824 160.396 178.214 158.739 176.23 158.739Z" fill="#F3F6FF"/>
        <path d="M84.2229 133.062C82.238 133.062 80.6288 134.72 80.6288 136.766V152.566C80.6288 154.612 82.238 156.27 84.2229 156.27C86.2078 156.27 87.817 154.612 87.817 152.566V136.766C87.817 134.72 86.2078 133.062 84.2229 133.062Z" fill="#F3F6FF"/>
        <path d="M84.2229 158.739C82.238 158.739 80.6288 160.396 80.6288 162.442V168.367C80.6288 170.413 82.238 172.071 84.2229 172.071C86.2078 172.071 87.817 170.413 87.817 168.367V162.442C87.817 160.396 86.2078 158.739 84.2229 158.739Z" fill="#F3F6FF"/>
    </g>
    <defs>
        <clipPath id="clip0_30_22">
            <rect width="232.877" height="239.955" fill="white" transform="translate(0.123535)"/>
        </clipPath>
    </defs>
</svg>
